# xmcd
#
# Track frame offsets: 
#        150
#        16366
#        33732
#        52614
#        70242
#        91221
#        115661
#        136802
#        154317
#        172145
#        190087
#        209541
#        231094
#
# Disc length: 3291 seconds
#
# Revision: 0
# Processed by: cddbd v1.5.2PL0 Copyright (c) Steve Scherf et al.
# Submitted via: ExactAudioCopy v1.3
#
DISCID=ac0cd90d
DTITLE=Dana Gillespie - Her Hits And Most Important Songs [disk 1]
DYEAR=1998
DGENRE=Blues, Pop
TTITLE0=Oh What A Night
TTITLE1=The Air That I Breathe
TTITLE2=Method Of Release
TTITLE3=Love Is A Strange Thing
TTITLE4=Know My Love
TTITLE5=Round About Midnight
TTITLE6=In Danger Tonight
TTITLE7=The Good Thing
TTITLE8=Some Enchanted Evening
TTITLE9=Still Around
TTITLE10=Love With A Stranger
TTITLE11=Don't Touch Me There
TTITLE12=Overseas Male
EXTD=
EXTT0=
EXTT1=
EXTT2=
EXTT3=
EXTT4=
EXTT5=
EXTT6=
EXTT7=
EXTT8=
EXTT9=
EXTT10=
EXTT11=
EXTT12=
PLAYORDER=
